<svg width="276" height="79" viewBox="0 0 276 79" fill="none" xmlns="http://www.w3.org/2000/svg">
<path d="M49.0399 12.79L34.9399 27.59L14.6999 27.29C14.6999 27.29 14.6999 27.38 14.6999 27.55C14.7299 28.71 13.0699 33.63 16.2399 37.41L42.1399 38.91L54.4899 19.98C54.4899 19.98 53.0299 14.98 49.0399 12.78V12.79Z" fill="#1484D2"/>
<path d="M7.7 34.49L8 25.57H33.94L58.71 0L24.97 2.32L0 25.58H5.57L6.13 34.58C5.08 34.96 4.33 35.96 4.33 37.13C4.33 38.3 5.09 39.32 6.14 39.69C5.73 41.23 4.34 45.61 1.28 48.1C1.28 48.1 4.13 50.65 6.78 49.48C6.78 49.48 8.13 46.77 7.74 39.76C8.91 39.45 9.77 38.4 9.77 37.13C9.77 35.86 8.89 34.78 7.7 34.49Z" fill="#1484D2"/>
<path d="M64.4601 21.54C62.4801 19.41 60.0901 17.72 57.2801 16.47C57.8701 17.71 58.1701 18.64 58.2401 18.89L58.7501 20.62L53.4301 28.78C53.7801 29.14 54.1101 29.52 54.4101 29.92C57.0201 33.27 58.3201 38.54 58.3201 45.75C58.3201 52.96 56.9501 58.41 54.2201 61.39C51.3701 64.62 46.9001 66.23 40.8201 66.23H30.2101V42.15L17.3601 41.4V77.78H38.9601C45.0401 77.78 49.5701 77.34 52.5501 76.47C55.6501 75.6 58.5701 74.12 61.3001 72.01C64.5301 69.52 67.1301 65.93 69.1201 61.21C70.8601 56.62 71.7201 51.47 71.7201 45.76C71.7201 35.09 69.3001 27.02 64.4601 21.56V21.54Z" fill="#1484D2"/>
<path d="M116.336 57.2639C116.336 58.4159 116.264 59.6159 116.12 60.8639H88.256C88.448 63.3599 89.24 65.2799 90.632 66.6239C92.072 67.9199 93.824 68.5679 95.888 68.5679C98.96 68.5679 101.096 67.2719 102.296 64.6799H115.4C114.728 67.3199 113.504 69.6959 111.728 71.8079C110 73.9199 107.816 75.5759 105.176 76.7759C102.536 77.9759 99.584 78.5759 96.32 78.5759C92.384 78.5759 88.88 77.7359 85.808 76.0559C82.736 74.3759 80.336 71.9759 78.608 68.8559C76.88 65.7359 76.016 62.0879 76.016 57.9119C76.016 53.7359 76.856 50.0879 78.536 46.9679C80.264 43.8479 82.664 41.4479 85.736 39.7679C88.808 38.0879 92.336 37.2479 96.32 37.2479C100.208 37.2479 103.664 38.0639 106.688 39.6959C109.712 41.3279 112.064 43.6559 113.744 46.6799C115.472 49.7039 116.336 53.2319 116.336 57.2639ZM103.736 54.0239C103.736 51.9119 103.016 50.2319 101.576 48.9839C100.136 47.7359 98.336 47.1119 96.176 47.1119C94.112 47.1119 92.36 47.7119 90.92 48.9119C89.528 50.1119 88.664 51.8159 88.328 54.0239H103.736ZM135.143 24.7199V77.9999H122.831V24.7199H135.143ZM150.258 33.6479C148.098 33.6479 146.322 33.0239 144.93 31.7759C143.586 30.4799 142.914 28.8959 142.914 27.0239C142.914 25.1039 143.586 23.5199 144.93 22.2719C146.322 20.9759 148.098 20.3279 150.258 20.3279C152.37 20.3279 154.098 20.9759 155.442 22.2719C156.834 23.5199 157.53 25.1039 157.53 27.0239C157.53 28.8959 156.834 30.4799 155.442 31.7759C154.098 33.0239 152.37 33.6479 150.258 33.6479ZM156.378 37.8239V77.9999H144.066V37.8239H156.378ZM177.612 24.7199V77.9999H165.3V24.7199H177.612ZM184.086 57.8399C184.086 53.7119 184.854 50.0879 186.39 46.9679C187.974 43.8479 190.11 41.4479 192.798 39.7679C195.486 38.0879 198.486 37.2479 201.798 37.2479C204.63 37.2479 207.102 37.8239 209.214 38.9759C211.374 40.1279 213.03 41.6399 214.182 43.5119V37.8239H226.494V77.9999H214.182V72.3119C212.982 74.1839 211.302 75.6959 209.142 76.8479C207.03 77.9999 204.558 78.5759 201.726 78.5759C198.462 78.5759 195.486 77.7359 192.798 76.0559C190.11 74.3279 187.974 71.9039 186.39 68.7839C184.854 65.6159 184.086 61.9679 184.086 57.8399ZM214.182 57.9119C214.182 54.8399 213.318 52.4159 211.59 50.6399C209.91 48.8639 207.846 47.9759 205.398 47.9759C202.95 47.9759 200.862 48.8639 199.134 50.6399C197.454 52.3679 196.614 54.7679 196.614 57.8399C196.614 60.9119 197.454 63.3599 199.134 65.1839C200.862 66.9599 202.95 67.8479 205.398 67.8479C207.846 67.8479 209.91 66.9599 211.59 65.1839C213.318 63.4079 214.182 60.9839 214.182 57.9119ZM260.098 37.3919C264.706 37.3919 268.402 38.9279 271.186 41.9999C273.97 45.0239 275.362 49.1999 275.362 54.5279V77.9999H263.122V56.1839C263.122 53.4959 262.426 51.4079 261.034 49.9199C259.642 48.4319 257.77 47.6879 255.418 47.6879C253.066 47.6879 251.194 48.4319 249.802 49.9199C248.41 51.4079 247.714 53.4959 247.714 56.1839V77.9999H235.402V24.7199H247.714V43.2239C248.962 41.4479 250.666 40.0319 252.826 38.9759C254.986 37.9199 257.41 37.3919 260.098 37.3919Z" fill="#1484D2"/>
</svg>
